<svg xmlns="http://www.w3.org/2000/svg" viewBox="0 0 130 71.37">
  <title>bdd parenkraf</title>
  <path d="M10,14.31l1.77,1c2.31,1.39,4.6,2.8,6.93,4.16a1.27,1.27,0,0,1,.67,1.29c0,6.54,0,13.09,0,19.63v1.13a24.18,24.18,0,0,1,18.83-5.13c7,.86,12.37,4.47,16.69,10,4.24-5.43,9.64-9.07,16.59-9.95a24,24,0,0,1,18.84,5.08v-1c0-6.57,0-13.15,0-19.72a1.06,1.06,0,0,1,.57-1.08q4.29-2.55,8.56-5.14a3.45,3.45,0,0,1,.41-.21V41.36c10.28-6.93,20.49-7,30.79,0v-.86c0-6.52,0-13,0-19.55a1.34,1.34,0,0,1,.73-1.35c2.74-1.63,5.45-3.31,8.18-5,.11-.06.23-.1.46-.2v.92c0,15.55,0,31.1,0,46.66a22.08,22.08,0,0,1-2.11,9.1,25,25,0,0,1-5.95,8.11,22.75,22.75,0,0,1-11.9,6,29.14,29.14,0,0,1-5.42.49,23.06,23.06,0,0,1-14.27-5.05c-1.87-1.54-3.57-3.29-5.39-5C90,82.07,83.35,85.71,75,85.69S60,82.07,55,75.53c-1.07,1.14-2.08,2.33-3.22,3.4a23,23,0,0,1-12.19,6.26,29.14,29.14,0,0,1-5.42.49,24,24,0,0,1-14.31-5,24.85,24.85,0,0,1-7.88-10A21.21,21.21,0,0,1,10.4,64.9,80,80,0,0,1,10,56.14c0-13.52,0-27,0-40.54ZM115.23,76.2c8.53.28,15.4-6.94,15.37-15.25A15.35,15.35,0,0,0,116,45.6,15.52,15.52,0,0,0,99.83,60.42C99.53,69.14,107,76.57,115.23,76.2Zm-80.44,0c8.54.23,15.08-7,15.35-14.52A15.38,15.38,0,1,0,19.39,61C19.37,69.14,26.17,76.47,34.79,76.2ZM75,76.2c8.42.33,15-7,15.35-14.09a15.37,15.37,0,1,0-30.66-2.18C59,69.08,67,76.61,75,76.2Z" transform="translate(-10 -14.31)"/>
</svg>
