<svg xmlns="http://www.w3.org/2000/svg" viewBox="0 0 78.11 78">
  <title>codepen</title>
  <path d="M89.05,35.73a2.46,2.46,0,0,0-1.17-2.08C50.67,11.58,51.2,9.93,48.78,11.39c-28.2,17.53-36,21.44-37.17,22.81-1,1-.56,2.65-.56,27C11,63.93,36.22,78.92,48.49,88.48a2.62,2.62,0,0,0,3.26-.1c36.48-25.85,37.36-24.81,37.3-27.22,0,0,0-25.76,0-25.43Zm-4.87,21.1-12.6-7.67,12.6-8.77ZM67,46.39,52.49,37.54V17.81L82.15,35.87Zm-17,11.8L37.46,49.43l12.59-7.67,12.6,7.67ZM47.61,17.81V37.55C42,41.06,37.19,44,33.15,46.44L18,35.87Zm-19,31.39c-6.09,3.66-10.07,6-12.65,7.54V40.39Zm4.32,3L47.61,62.44V81.93L18,61.3ZM52.49,81.94V62.44L67.2,52.2l15,9.1Z" transform="translate(-10.95 -11)"/>
</svg>
