<svg xmlns="http://www.w3.org/2000/svg" viewBox="0 0 287.91 72.17">
  <title>divoding</title>
  <path d="M251,86.15V14.21h43.45V86.15Zm34.09-20c.2,2.46.29,4.49-1.17,6.44a13.88,13.88,0,0,1-19.6,2.55,21.82,21.82,0,0,1-3.82-4.73c-1.5-2.16-3.39-2.78-5.63-1.61-2,1-2.53,3-1.45,5.3a13.34,13.34,0,0,0,1.16,2,22.15,22.15,0,0,0,36.13.52,11.44,11.44,0,0,0,2.44-7.23c0-6.54.07-13.08.09-19.62a19.69,19.69,0,0,0-.15-3.44,20.7,20.7,0,0,0-24-16.75c-9.91,1.84-18.74,11.7-16.43,23.86A20.84,20.84,0,0,0,272.35,70C277,70.08,281.24,69.21,285.11,66.14Z" transform="translate(-6.56 -13.98)"/>
  <path d="M40.06,33.12c0-5.26,0-10.1,0-14.93a3.88,3.88,0,0,1,5.86-3.69,3.32,3.32,0,0,1,1.82,3.43c0,7.57,0,15.13,0,22.7,0,4.16.42,8.39-.16,12.48-1.35,9.51-10.31,16.53-19.91,17S7,62.52,6.57,49.69C6.25,38.94,15.89,29.05,26.7,28.91A20.16,20.16,0,0,1,40.06,33.12Zm.08,16.24a12.71,12.71,0,0,0-13-12.75,12.88,12.88,0,0,0,.26,25.76A12.71,12.71,0,0,0,40.14,49.36Z" transform="translate(-6.56 -13.98)"/>
  <path d="M180.14,32.8c0-.63.1-1.21.1-1.79q0-6.45-.08-12.9A3.77,3.77,0,0,1,183.82,14c2.72,0,4,1.26,4,4q0,13,0,26c0,3.08.32,6.21-.14,9.22-1.43,9.36-10.38,16.4-19.88,16.84S147,62.51,146.69,49.52c-.23-10.72,9.39-20.54,20.14-20.58C171.94,28.92,171.94,28.92,180.14,32.8Zm.1,16.69c.58-7.06-6.31-13-13.05-12.91a12.9,12.9,0,0,0,.36,25.8C175.38,62.42,180.76,55.17,180.24,49.49Z" transform="translate(-6.56 -13.98)"/>
  <path d="M124.94,70c-8.88.65-20.2-7.49-20.18-20.3a20.33,20.33,0,0,1,20.47-20.09c11.22,0,20,9.12,20.24,20.47S134.68,70.67,124.94,70Zm.14-7.72c7,0,12.23-5.36,12.54-12.4.28-6.16-5.41-12.62-12.63-12.53a12.62,12.62,0,0,0-12.41,12.43A12.49,12.49,0,0,0,125.08,62.25Z" transform="translate(-6.56 -13.98)"/>
  <path d="M217.86,33.09a20.11,20.11,0,0,1,31.86,16.1q0,8.36,0,16.72A3.85,3.85,0,0,1,244,69.48a3.38,3.38,0,0,1-2-3.38c0-4.85.08-9.69,0-14.54a25.1,25.1,0,0,0-.68-5.74c-1.51-5.77-6.55-9-13.09-8.59A11.55,11.55,0,0,0,218,47.42c-.43,6.15-.28,12.34-.34,18.51a3.49,3.49,0,0,1-2.17,3.62c-2.95,1.24-5.43-.48-5.45-3.88,0-6.06,0-12.12,0-18.17,0-4.49,0-9,0-13.45,0-2.79,1.2-4.46,3.29-4.69S217.19,30.61,217.86,33.09Z" transform="translate(-6.56 -13.98)"/>
  <path d="M66.89,49.46c.45-8.76,4.63-15,12.47-18.46s15.19-1.93,21.71,3.55a3.89,3.89,0,0,1,.66,5.23,3.57,3.57,0,0,1-4.85,1,21.39,21.39,0,0,1-2.33-1.43c-4.39-3-10.5-3-14.51,0A12.93,12.93,0,0,0,75.3,53.81c2.67,7.81,12,10.86,19.23,6.26.66-.43,1.26-1,1.92-1.38a4,4,0,0,1,5,.51,3.84,3.84,0,0,1-.15,5.28,18.58,18.58,0,0,1-9.37,5C80.13,72,69.67,64.94,67.3,53.12,67.05,51.88,67,50.6,66.89,49.46Z" transform="translate(-6.56 -13.98)"/>
  <path d="M62.31,49.46c0,5.44,0,10.88,0,16.33,0,2.69-1.38,4.1-3.94,4.14-2.15,0-3.73-1.56-3.74-4q-.06-16.32,0-32.65a4.08,4.08,0,0,1,2.06-3.81c1.46-.81,2.81-.33,4.11.45A3.18,3.18,0,0,1,62.32,33C62.29,38.45,62.31,44,62.31,49.46Z" transform="translate(-6.56 -13.98)"/>
  <path d="M202.42,49.56q0,8.07,0,16.15c0,2.74-1.29,4.13-3.85,4.22-2.2.07-3.81-1.56-3.82-4.14,0-10.83-.07-21.65,0-32.47,0-3.67,2.94-5.32,5.95-3.59a3.26,3.26,0,0,1,1.73,3.14C202.39,38.43,202.42,44,202.42,49.56Z" transform="translate(-6.56 -13.98)"/>
  <path d="M62.31,23.41c0,2.41-1.53,3.78-4.12,3.74a3.84,3.84,0,0,1,.12-7.66A3.68,3.68,0,0,1,62.31,23.41Z" transform="translate(-6.56 -13.98)"/>
  <path d="M202.41,23.44c0,2.38-1.57,3.77-4.13,3.71a3.84,3.84,0,0,1,.17-7.66A3.67,3.67,0,0,1,202.41,23.44Z" transform="translate(-6.56 -13.98)"/>
  <path d="M272.86,62A12.25,12.25,0,0,1,260.31,49.7,12.54,12.54,0,0,1,272.4,37.23c6.56-.32,13,5.63,13,12.38C285.32,55.59,279.93,62.45,272.86,62Z" transform="translate(-6.56 -13.98)"/>
</svg>
