<svg xmlns="http://www.w3.org/2000/svg" viewBox="0 0 75.71 73.82">
  <title>guthub</title>
  <path d="M87.85,52.49c0,.51-.09,1-.14,1.54a37.91,37.91,0,0,1-25.4,32.72,2.94,2.94,0,0,1-.94.16,1.77,1.77,0,0,1-1.9-1.9c0-1.85,0-3.69,0-5.54,0-2,0-4,0-6a8.47,8.47,0,0,0-1.88-5.22,1.93,1.93,0,0,0-.27-.3c-.09-.09-.18-.16-.34-.3.78-.11,1.45-.2,2.13-.31A22.87,22.87,0,0,0,66.2,65.1a14,14,0,0,0,7-8.61,23.69,23.69,0,0,0,.87-9.72,13.88,13.88,0,0,0-3.47-7.69.6.6,0,0,1-.13-.68,13.45,13.45,0,0,0,0-8c-.13-.45-.31-.88-.44-1.33a.47.47,0,0,0-.49-.36,9.15,9.15,0,0,0-3.62.58,25.73,25.73,0,0,0-6.05,3.13.87.87,0,0,1-.78.14,34.62,34.62,0,0,0-10-1.17,33.16,33.16,0,0,0-8.05,1.16,1,1,0,0,1-.89-.15,25.66,25.66,0,0,0-6.34-3.19,9.06,9.06,0,0,0-3.27-.5.52.52,0,0,0-.53.4,13.74,13.74,0,0,0-.48,9,1.24,1.24,0,0,1-.26,1.33A14.35,14.35,0,0,0,26,48.68a24.51,24.51,0,0,0,1.14,8.2,14.19,14.19,0,0,0,8.48,9,27.23,27.23,0,0,0,7,1.72l.45.06s0,.09,0,.11a7.94,7.94,0,0,0-2.22,4.57.58.58,0,0,1-.41.53,9.28,9.28,0,0,1-5.92.58A7.61,7.61,0,0,1,30,69.88,10.63,10.63,0,0,0,27,66.69a5.25,5.25,0,0,0-4.07-.9,1.68,1.68,0,0,0-.38.12c-.39.18-.53.5-.28.84a3.52,3.52,0,0,0,1,1c2.4,1.4,3.64,3.69,4.68,6.1a7.12,7.12,0,0,0,5.16,4.23,16.36,16.36,0,0,0,6.39.11c.34,0,.67-.1,1.06-.16,0,.16,0,.3,0,.44,0,2.11,0,4.21.05,6.32a2,2,0,0,1-2.79,2,35.49,35.49,0,0,1-9.73-5,37.44,37.44,0,0,1-15-22.49,37.85,37.85,0,0,1,8.3-33.14,37.83,37.83,0,0,1,32.5-12.88,37.83,37.83,0,0,1,32.52,27.3A36.31,36.31,0,0,1,87.79,49c0,.16,0,.31.06.47Z" transform="translate(-12.15 -13.09)"/>
</svg>
