<svg xmlns="http://www.w3.org/2000/svg" viewBox="0 0 96 96">
  <title>nowplaying</title>
  <g>
    <circle cx="72.38" cy="39.37" r="3.75"/>
    <path d="M108,34.5h-4.87V30.75a3.75,3.75,0,0,0-7.5,0V34.5H78.56V30.75a3.75,3.75,0,0,0-7.5,0V34.5H54.19V30.75a3.75,3.75,0,0,0-7.5,0V34.5H42a15,15,0,0,0-15,15V108a15,15,0,0,0,15,15H70.69a3.75,3.75,0,0,0,0-7.5H42a7.5,7.5,0,0,1-7.5-7.5V49.5A7.5,7.5,0,0,1,42,42h4.69v3.75a3.75,3.75,0,0,0,7.5,0V42H71.06v3.75a3.75,3.75,0,0,0,7.5,0V42H95.63v3.75a3.75,3.75,0,0,0,7.5,0V42H108a7.5,7.5,0,0,1,7.5,7.5V70.88a3.75,3.75,0,0,0,7.5,0V49.5A15,15,0,0,0,108,34.5Z" transform="translate(-27 -27)"/>
    <path d="M100.31,77.63A22.69,22.69,0,1,0,123,100.31,22.7,22.7,0,0,0,100.31,77.63Zm0,37.87a15.19,15.19,0,1,1,15.19-15.19A15.21,15.21,0,0,1,100.31,115.5Z" transform="translate(-27 -27)"/>
    <path d="M105.75,96.56h-1.69V92.62a3.75,3.75,0,0,0-7.5,0v7.69a3.75,3.75,0,0,0,3.75,3.75h5.44a3.75,3.75,0,0,0,0-7.5Z" transform="translate(-27 -27)"/>
    <circle cx="56.06" cy="39.37" r="3.75"/>
    <circle cx="39.75" cy="55.69" r="3.75"/>
    <circle cx="23.44" cy="39.37" r="3.75"/>
    <circle cx="23.44" cy="55.69" r="3.75"/>
    <circle cx="23.44" cy="72" r="3.75"/>
    <circle cx="39.75" cy="72" r="3.75"/>
    <circle cx="39.75" cy="39.37" r="3.75"/>
  </g>
</svg>
