<svg xmlns="http://www.w3.org/2000/svg" viewBox="0 0 133.94 134">
  <title>popular</title>
  <path d="M8,93a3.26,3.26,0,0,1,3-1.33c6.28,0,12.55,0,18.83,0,2.71,0,3.14.41,3.26,3.15a4,4,0,0,0,.12.51c2.92-1.87,5.37-4.08,6.36-7.4,2.7-9.09,5.27-18.22,7.9-27.34.62-2.18,1.36-2.65,3.62-2.34,5.93.83,10.12,5.2,11.05,11.26.56,3.67-.35,7.2-.69,10.78-.23,2.34-.58,4.66-.9,7.18h1.58c8.46,0,16.91,0,25.37,0a8.31,8.31,0,0,1,6.72,13.19c-.64.92-1.44,1.74-2.21,2.65,2.91,4.22,1.85,9.25-2.37,12.29a8.48,8.48,0,0,1-2.1,12.49,8.72,8.72,0,0,1,1.86,6.08,8.29,8.29,0,0,1-8.39,7.69c-9.51,0-19-.13-28.51.07a40.83,40.83,0,0,1-14.85-2.2c-1.43-.52-2.92-.86-4.47-1.31,0,.37-.08.66-.09.94-.07,1.8-.78,2.5-2.6,2.51-6.63,0-13.25,0-19.88,0A3.14,3.14,0,0,1,8,140.62ZM51.44,62.63c-.12.38-.21.62-.28.86-2.35,8.2-4.74,16.39-7,24.6A17.09,17.09,0,0,1,41,94.19a15.39,15.39,0,0,1-7.84,5.68v34.21c3.1.88,6.18,1.78,9.28,2.64a16.76,16.76,0,0,0,4.16,1c11.46.08,22.92.05,34.38,0a4.19,4.19,0,1,0-.07-8.35c-2.53,0-5.06,0-7.58,0-1.56,0-2.5-.77-2.54-2s.93-2.15,2.54-2.15c3.23,0,6.45,0,9.67,0A4.22,4.22,0,0,0,87.53,121c0-2.42-1.91-4.15-4.57-4.16-2.48,0-5,0-7.45,0-1.65,0-2.61-.78-2.61-2.09s.95-2.09,2.6-2.09c3.18,0,6.36,0,9.54,0,2.68,0,4.56-1.72,4.58-4.15a4.21,4.21,0,0,0-4.52-4.2c-2.48,0-5,0-7.45,0-1.67,0-2.62-.74-2.66-2s1-2.14,2.68-2.14c3.23,0,6.45,0,9.68,0a4.19,4.19,0,1,0-.09-8.36c-9.5,0-19,0-28.5,0-2,0-2.8-.92-2.56-2.87.61-4.92,1.2-9.85,1.88-14.77a12.49,12.49,0,0,0-1-6.89A7.81,7.81,0,0,0,51.44,62.63ZM28.85,137.69V96H12.29v41.73Z" transform="translate(-8.03 -8)"/>
  <path d="M103,8a15.3,15.3,0,0,1,1.53,2.18q4.59,10,9.09,20a1.82,1.82,0,0,0,1.58,1.24c8.18,1.22,16.35,2.51,24.52,3.76,1,.14,1.84.41,2.17,1.4a2.41,2.41,0,0,1-.88,2.55c-5.63,5.59-11.22,11.22-16.86,16.79a2.2,2.2,0,0,0-.68,2.19c1.28,7.47,2.52,14.94,3.78,22.41a2.24,2.24,0,0,1-.82,2.44,2.3,2.3,0,0,1-2.68-.09c-6.8-3.72-13.61-7.41-20.39-11.16a2,2,0,0,0-2.25,0C94.4,75.32,87.69,78.92,81,82.55c-1,.53-1.95,1.07-3,.3s-.91-1.83-.71-3c1.25-7.34,2.46-14.68,3.72-22a2,2,0,0,0-.72-1.93c-5.6-5.55-11.17-11.14-16.76-16.7a2.42,2.42,0,0,1-1-2.52,2.19,2.19,0,0,1,2-1.56c6.76-1,13.51-2.07,20.27-3.1,1.5-.24,3-.55,4.51-.69.87-.08,1.15-.57,1.45-1.24,3-6.65,6-13.31,9.1-19.95A14.54,14.54,0,0,1,101.4,8Zm-.88,7.1c-.31.65-.5,1-.68,1.43-2.54,5.59-5.09,11.17-7.6,16.77a2.82,2.82,0,0,1-2.27,1.89c-4.65.69-9.3,1.41-13.94,2.12-2.81.43-5.62.88-8.61,1.35.44.48.73.8,1,1.1q7.17,7.16,14.34,14.31a2.92,2.92,0,0,1,1,2.79c-.86,4.89-1.67,9.78-2.49,14.67-.31,1.82-.58,3.65-.91,5.7.63-.31,1-.49,1.39-.69,5.73-3.12,11.48-6.22,17.19-9.37a2.93,2.93,0,0,1,3.18,0c2.41,1.38,4.88,2.68,7.33,4l11.37,6.16c-.06-.6-.08-1-.14-1.43-1-6-1.94-11.95-3-17.89a4.44,4.44,0,0,1,1.37-4.42c4.6-4.57,9.09-9.26,13.63-13.91.27-.28.53-.58.92-1-7.58-1.17-14.89-2.32-22.2-3.41a3.08,3.08,0,0,1-2.65-2c-.93-2.2-1.95-4.37-2.94-6.54Z" transform="translate(-8.03 -8)"/>
  <path d="M41.56,39.44c-.17,3.22-.63,4.08-2.09,4.12s-2-.88-2.21-4.17c-.61,0-1.25,0-1.88,0a2.09,2.09,0,1,1-.05-4.17c.6,0,1.21,0,1.94,0,.21-1.72-.52-4.21,2.27-4.11,2.49.09,1.84,2.37,2,4,1.64.26,4.08-.5,4,2.2S43.25,39.25,41.56,39.44Z" transform="translate(-8.03 -8)"/>
  <path d="M119.31,116.85a35,35,0,0,1-1.19,3.62c-.15.32-.91.5-1.39.5-1.4,0-1.81-.84-2.07-4.11-1.64-.2-4.13.52-4-2.27.1-2.49,2.38-1.82,4-2,.27-1.63-.49-4.08,2.21-4s1.92,2.36,2.11,4.06c1.69.18,3.93-.51,4.1,2.2C123.16,116.24,122.18,116.7,119.31,116.85Z" transform="translate(-8.03 -8)"/>
</svg>
