<svg xmlns="http://www.w3.org/2000/svg" viewBox="0 0 132 132.06">
  <title>toprated</title>
  <g>
    <path d="M74.89,111.76a12.52,12.52,0,0,1-1,1.43Q60.77,126.3,47.7,139.36L47,140c-1.71,1.64-3.48,1.17-4-1.12q-2.13-9.12-4.23-18.25c-.5-2.2-1.07-4.39-1.52-6.59a1.47,1.47,0,0,0-1.34-1.34Q23.95,110,12,107.18a12.18,12.18,0,0,1-1.29-.3,2.12,2.12,0,0,1-1.1-3.56c.26-.31.56-.58.84-.86q9.33-9.31,18.63-18.62a8.18,8.18,0,0,1,1.28-.9c-2-2-3.36-4.1-3.5-6.62a17.1,17.1,0,0,1,.49-4.83A4.78,4.78,0,0,0,26.52,67c-3.67-4.64-3.52-9.88.42-14.36a4.81,4.81,0,0,0,1-4.89c-1.81-5.83.1-10.49,5.49-13.41a4.43,4.43,0,0,0,2.38-3.62c.74-5.87,4.27-9.31,10.19-9.81a5.36,5.36,0,0,0,4.68-3.17,10.37,10.37,0,0,1,12.78-5.35,4.78,4.78,0,0,0,4.8-.9,10.36,10.36,0,0,1,13.85.35A5.15,5.15,0,0,0,87.66,13a10.4,10.4,0,0,1,12.94,5.23,4.72,4.72,0,0,0,4.07,2.71,10.35,10.35,0,0,1,9.5,9.79,5.68,5.68,0,0,0,3.33,5.14,10.34,10.34,0,0,1,5.25,12.6,4.92,4.92,0,0,0,.9,4.94,10.36,10.36,0,0,1-.5,13.94A4.64,4.64,0,0,0,122,72.22a10.69,10.69,0,0,1-1.72,10.9c.34.35.65.7,1,1l18.33,18.35c.82.81,1.76,1.58,1.33,2.95s-1.62,1.49-2.71,1.75q-12,2.79-24.08,5.54a1.47,1.47,0,0,0-1.34,1.31c-1.81,8-3.62,16-5.52,23.95a10.22,10.22,0,0,1-.39,1.54,2.06,2.06,0,0,1-3.34,1,8.36,8.36,0,0,1-1-.91L76.29,113.37C75.89,113,75.54,112.52,74.89,111.76ZM60.41,16.07c-2.95.11-4.86,1.29-6,3.62a9.17,9.17,0,0,1-8.14,5.43c-3.73.28-5.78,2.29-6.23,6a8.58,8.58,0,0,1-4.88,7.09,6.17,6.17,0,0,0-3.22,7.84,9.06,9.06,0,0,1-2,9.71,6.13,6.13,0,0,0-.13,8.46,8.53,8.53,0,0,1,1.62,8.58,6.16,6.16,0,0,0,3.26,7.81,9.22,9.22,0,0,1,5.43,8.2,7,7,0,0,0,.51,2.43A5.88,5.88,0,0,0,45.7,95a8.67,8.67,0,0,1,7.51,5.11A6.16,6.16,0,0,0,61,103.16a9.05,9.05,0,0,1,9.62,2,6.32,6.32,0,0,0,8.59.15,8.51,8.51,0,0,1,8.47-1.56,6.16,6.16,0,0,0,7.82-3.24,9.31,9.31,0,0,1,8.2-5.43c3.73-.27,5.76-2.29,6.2-6a8.55,8.55,0,0,1,4.82-7,6.25,6.25,0,0,0,3.3-8,9,9,0,0,1,2-9.48,6.18,6.18,0,0,0,.23-8.54,8.45,8.45,0,0,1-1.64-8.46,6.24,6.24,0,0,0-3.36-8A9,9,0,0,1,110,31.77c-.38-4.22-2.15-6.05-6.34-6.62A8.35,8.35,0,0,1,97,20.45c-1.73-3.33-4.66-4.52-8.26-3.31a8.73,8.73,0,0,1-9-1.81c-3-2.6-6-2.72-9.11-.25a8.28,8.28,0,0,1-8,1.49,19.54,19.54,0,0,0-2.14-.5Zm10,94.13a22.28,22.28,0,0,1-2.56-1.86,5.18,5.18,0,0,0-5.63-1.14,10.39,10.39,0,0,1-12.81-5.26,4.73,4.73,0,0,0-4.07-2.71,10.36,10.36,0,0,1-9.22-8.09c-.24-1-.26-2-.42-3a3.88,3.88,0,0,0-1.46-2.72L22.26,97.28c7.49,1.73,15.21,3.54,22.93,5.3a2.56,2.56,0,0,1,2.19,2.15c.83,3.8,1.74,7.6,2.62,11.39s1.81,7.89,2.71,11.76Zm26.86,17.73c1.81-7.7,3.62-15.39,5.33-23.06a2.73,2.73,0,0,1,2.34-2.32c4.53-1,9-2,13.46-3.09l9.76-2.28c-.3-.34-.47-.54-.65-.72C124,93,120.64,89.61,117.19,86.22a1.21,1.21,0,0,0-1.11-.09c-1.43.79-1.81,2.17-2,3.69a10.32,10.32,0,0,1-9.61,9.38,5.91,5.91,0,0,0-5.43,3.56,10.15,10.15,0,0,1-11.93,5.18c-2.33-.71-4.21-.51-6,1.16a8.79,8.79,0,0,1-1.62,1.08ZM15.39,103.24l.21.38c7.71,1.81,15.39,3.62,23.13,5.34A2.63,2.63,0,0,1,41,111.21c1.1,4.92,2.26,9.83,3.4,14.74.65,2.81,1.3,5.63,2,8.79.91-1,1.65-1.69,2.27-2.48A1.74,1.74,0,0,0,49,131l-5.43-23.53a1.69,1.69,0,0,0-1.06-1.06Q30.74,103.6,19,101a1.58,1.58,0,0,0-1.18.21c-.83.63-1.59,1.38-2.38,2.08Zm119.37.3c-.77-.76-1.57-1.49-2.41-2.17a2.12,2.12,0,0,0-1.48-.39c-7.77,1.75-15.53,3.56-23.28,5.33a1.39,1.39,0,0,0-1.29,1.22c-1.81,7.81-3.62,15.6-5.37,23.41A1.43,1.43,0,0,0,101,132c.68.9,1.48,1.71,2.41,2.76.17-.61.23-.76.26-.91,1.69-7.24,3.43-14.55,5-21.85a3.77,3.77,0,0,1,3.35-3.3c7.46-1.6,14.86-3.36,22.73-5.17Z" transform="translate(-9 -8.97)"/>
    <path d="M113.3,60.08A38.32,38.32,0,1,1,75,21.76h0A38.39,38.39,0,0,1,113.3,60.08ZM75,26a34.07,34.07,0,1,0,34,34.1V60A34.1,34.1,0,0,0,75,26Z" transform="translate(-9 -8.97)"/>
    <path d="M75,73.35c-4.47,3.19-8.85,6.34-13.2,9.42-.84.59-1.68,1-2.71.47a2.17,2.17,0,0,1-1-2.72c1.19-4.68,2.31-9.37,3.54-14a1.81,1.81,0,0,0-.74-2.22c-3.41-2.77-6.75-5.62-10.13-8.42-.91-.75-1.67-1.53-1.21-2.81s1.49-1.47,2.71-1.46H66a1.31,1.31,0,0,0,1.49-1.09q2.63-8,5.32-16a3.76,3.76,0,0,1,.8-1.5c1.16-1.19,2.93-.63,3.52,1.12,1.45,4.27,2.87,8.56,4.3,12.84.39,1.18.82,2.35,1.15,3.54a1.26,1.26,0,0,0,1.41,1.1H84c4.53-.06,9.13,0,13.7,0,1.21,0,2.23.21,2.67,1.47s-.24,2-1.12,2.72c-3.45,2.86-6.86,5.75-10.34,8.58a1.67,1.67,0,0,0-.63,2c1.21,4.67,2.35,9.36,3.55,14a2.29,2.29,0,0,1-.76,2.72,2.22,2.22,0,0,1-2.81-.26C83.88,79.7,79.51,76.56,75,73.35Zm.15-31.57h-.28c-.15.4-.31.79-.44,1.2-1.23,3.62-2.47,7.29-3.62,11a2.47,2.47,0,0,1-2.65,1.92c-2.09,0-4.17,0-6.25,0H57.56c.54.48.82.75,1.12,1,2.14,1.81,4.26,3.62,6.45,5.34a2.72,2.72,0,0,1,1.13,3.35c-.32,1-.51,2-.75,3l-1.9,7.7c.62-.4,1-.63,1.33-.9l8.34-6c1.44-1,2-1,3.46,0l5,3.55,4.7,3.34c-.76-3-1.46-5.66-2.09-8.32-1.16-4.86-1.62-3.9,2.31-7.24,1.81-1.55,3.7-3.1,5.59-4.69-.21-.11-.27-.2-.35-.2H82.45c-2.35,0-2.71-.24-3.43-2.47Z" transform="translate(-9 -8.97)"/>
  </g>
</svg>
