<svg xmlns="http://www.w3.org/2000/svg" viewBox="0 0 118 108.33">
  <title>upcoming</title>
  <g>
    <path d="M134,125c-1.09,3.15-3.38,4.16-6.6,4.15q-52.77-.07-105.53,0c-3.76,0-5.86-2.09-5.86-5.84,0-4.69,0-9.37,0-14.06,0-1.43.82-2.24,2-2s1.45,1,1.45,2c0,4.64,0,9.29,0,13.94,0,1.93.54,2.48,2.44,2.48H128.13c1.86,0,2.41-.56,2.41-2.41V60.78H19.47V99.9a6.32,6.32,0,0,1,0,1.15A1.71,1.71,0,0,1,16,101a6,6,0,0,1,0-1V26.69c0-3.76,2.08-5.83,5.86-5.83q53.11,0,106.23,0A5.69,5.69,0,0,1,134,25ZM19.47,57.18H130.54V44.33c0-5.88,0-11.75,0-17.63,0-1.83-.56-2.38-2.42-2.38H22.26c-2.39,0-2.79.41-2.79,2.83v30Z" transform="translate(-16 -20.84)"/>
    <path d="M72.35,93.11v24.07c0,2.74-1.38,4.15-4.07,4.15H31.54c-2.74,0-4.13-1.34-4.13-4.08q0-24,0-48c0-2.81,1.35-4.13,4.19-4.13H68.11c2.92,0,4.23,1.29,4.23,4.19q0,11.92,0,23.85Zm-3.56,24.72V68.6H31v49.23Z" transform="translate(-16 -20.84)"/>
    <path d="M119.14,68.59H81.19v49.19h37.89c0-.36.06-.76.06-1.16q0-15.74,0-31.46a6.61,6.61,0,0,1,.07-1.26,1.69,1.69,0,0,1,3.29-.05,5.9,5.9,0,0,1,.09,1.26V117c0,3-1.32,4.29-4.28,4.29H81.92c-2.91,0-4.25-1.3-4.25-4.19q0-24,0-47.93c0-2.82,1.34-4.13,4.18-4.13h36.63c2.75,0,4.11,1.34,4.13,4.08,0,2.19,0,4.38,0,6.57,0,1.38-.64,2.12-1.72,2.12s-1.71-.73-1.72-2.12c0-2,0-3.91,0-5.87Z" transform="translate(-16 -20.84)"/>
    <path d="M114.84,93.21v14.28c0,2.14-.57,2.76-2.61,3.25a2.19,2.19,0,0,0-1.29,1.1,2.78,2.78,0,0,1-2.8,1.78q-8,0-16,0a2.84,2.84,0,0,1-2.82-1.77,2.49,2.49,0,0,0-1.51-1.13c-1.58-.39-2.38-1.14-2.38-2.76q0-14.8,0-29.6a2.4,2.4,0,0,1,2.33-2.64,1.75,1.75,0,0,0,1.62-1.23,2.54,2.54,0,0,1,2.69-1.74h16.12a2.81,2.81,0,0,1,2.73,1.72,2.5,2.5,0,0,0,1.47,1.18c1.72.4,2.45,1.15,2.45,2.93,0,4.87,0,9.75,0,14.63Zm-3.46,0h0c0-4.34,0-8.68,0-13a1.37,1.37,0,0,0-.89-1.47A6.93,6.93,0,0,1,108.3,77a1.73,1.73,0,0,0-1.5-.77q-6.51,0-13,0a2,2,0,0,0-2,1,3.27,3.27,0,0,1-1.63,1.38,1.66,1.66,0,0,0-1.3,2.12,7.57,7.57,0,0,1,0,1.26c0,8.07,0,16.13,0,24.2a1.36,1.36,0,0,0,.94,1.54,5.77,5.77,0,0,1,2.11,1.69,1.75,1.75,0,0,0,1.6.81q6.61,0,13.25,0a1.84,1.84,0,0,0,1.59-.82,6.76,6.76,0,0,1,2.22-1.75,1.17,1.17,0,0,0,.82-1.26C111.37,102,111.38,97.59,111.38,93.21Z" transform="translate(-16 -20.84)"/>
    <path d="M35.17,93.08V78.8c0-2,.61-2.68,2.57-3.16a2.38,2.38,0,0,0,1.36-1.18,2.72,2.72,0,0,1,2.62-1.71H58a2.82,2.82,0,0,1,2.72,1.74,2.47,2.47,0,0,0,1.48,1.17c1.69.4,2.42,1.14,2.43,2.95,0,4.49,0,9,0,13.47q0,7.73,0,15.44c0,2.1-.58,2.73-2.63,3.24a2,2,0,0,0-1.24,1,2.79,2.79,0,0,1-2.85,1.88q-8,0-16,0a2.82,2.82,0,0,1-2.81-1.77,2.34,2.34,0,0,0-1.41-1.11c-1.79-.43-2.47-1.15-2.47-3Q35.17,100.41,35.17,93.08Zm26,.09c0-4.38,0-8.75,0-13.13a1.21,1.21,0,0,0-.81-1.28,18.53,18.53,0,0,1-2.39-1.89,2.5,2.5,0,0,0-1.19-.64q-6.86-.06-13.71,0a2.46,2.46,0,0,0-1.2.61,21.67,21.67,0,0,1-2.48,2A1.16,1.16,0,0,0,38.62,80q0,13.2,0,26.39a1.15,1.15,0,0,0,.75,1.2,19.38,19.38,0,0,1,2.42,1.85,2.7,2.7,0,0,0,1.28.69q6.8.08,13.59,0a2.64,2.64,0,0,0,1.29-.65,15.14,15.14,0,0,1,2.3-1.83,1.35,1.35,0,0,0,.9-1.46C61.12,101.85,61.13,97.51,61.13,93.17Z" transform="translate(-16 -20.84)"/>
    <path d="M100,101.26H94.49c-1.33,0-2.09-.69-2.06-1.78s.77-1.67,2-1.68c3.76,0,7.52,0,11.27,0,1.33,0,2.1.69,2.07,1.77s-.78,1.67-2,1.68Z" transform="translate(-16 -20.84)"/>
    <path d="M100.15,107.06c-1.19,0-2.38,0-3.56,0a1.72,1.72,0,0,1-1.9-1.71,1.77,1.77,0,0,1,1.91-1.73q3.51,0,7,0a1.78,1.78,0,0,1,1.95,1.81c0,1-.78,1.62-2,1.64s-2.3,0-3.45,0Z" transform="translate(-16 -20.84)"/>
    <path d="M49.89,101.26H44.25c-1.32,0-2.1-.69-2.07-1.78s.78-1.67,2.06-1.67q5.63,0,11.27,0c1.33,0,2.09.68,2.06,1.77s-.78,1.67-2,1.68Z" transform="translate(-16 -20.84)"/>
    <path d="M49.87,107.06c-1.19,0-2.38,0-3.57,0a1.71,1.71,0,0,1-1.87-1.74,1.76,1.76,0,0,1,1.83-1.7q3.62,0,7.25,0a1.74,1.74,0,0,1,1.81,1.71,1.71,1.71,0,0,1-1.89,1.72C52.24,107.08,51.06,107.06,49.87,107.06Z" transform="translate(-16 -20.84)"/>
  </g>
</svg>
